<?xml version="1.0" standalone="no"?><!DOCTYPE svg PUBLIC "-//W3C//DTD SVG 1.1//EN" "http://www.w3.org/Graphics/SVG/1.1/DTD/svg11.dtd"><svg t="1766424291840" class="icon" viewBox="0 0 1137 1024" version="1.1" xmlns="http://www.w3.org/2000/svg" p-id="137473" xmlns:xlink="http://www.w3.org/1999/xlink" width="71.0625" height="64"><path d="M51.52237 446.957037L776.38163 12.041481A75.851852 75.851852 0 0 1 891.259259 77.084444v869.831112a75.851852 75.851852 0 0 1-114.877629 65.042963L51.52237 577.042963a75.851852 75.851852 0 0 1 0-130.085926z" fill="#35495E" p-id="137474"></path><path d="M1086.255407 577.042963L361.396148 1011.958519A75.851852 75.851852 0 0 1 246.518519 946.915556V77.084444a75.851852 75.851852 0 0 1 114.877629-65.042963L1086.255407 446.957037a75.851852 75.851852 0 0 1 0 130.085926z" fill="#409EFF" p-id="137475"></path><path d="M313.476741 481.052444l349.677037-209.806222A37.925926 37.925926 0 0 1 720.592593 303.786667v419.612444a37.925926 37.925926 0 0 1-57.438815 32.521482l-349.677037-209.806223a37.925926 37.925926 0 0 1 0-65.042963z" fill="#FFFFFF" p-id="137476"></path><path d="M655.54963 528.251259l-133.802667 80.289185A18.962963 18.962963 0 0 1 493.037037 592.289185v-160.57837a18.962963 18.962963 0 0 1 28.709926-16.251259l133.82163 80.289185a18.962963 18.962963 0 0 1 0 32.502518z" fill="#409EFF" p-id="137477"></path></svg>