<?xml version="1.0" standalone="no"?><!DOCTYPE svg PUBLIC "-//W3C//DTD SVG 1.1//EN" "http://www.w3.org/Graphics/SVG/1.1/DTD/svg11.dtd"><svg t="1766318710356" class="icon" viewBox="0 0 1024 1024" version="1.1" xmlns="http://www.w3.org/2000/svg" p-id="25677" width="32" height="32" xmlns:xlink="http://www.w3.org/1999/xlink"><path d="M256 224a224 224 0 1 0 448 0 224 224 0 1 0-448 0zM448 960H0c0-243.2 153.6-345.6 192-358.4 64-19.2 96-25.6 224-25.6h32c-38.4 51.2-64 121.6-64 192s25.6 140.8 64 192z m486.4-281.6l38.4-70.4-44.8-44.8-70.4 32c-6.4-6.4-19.2-6.4-38.4-12.8L800 512h-64l-25.6 70.4c-12.8 6.4-25.6 6.4-32 12.8l-64-32-51.2 44.8 38.4 70.4c-6.4 6.4-12.8 19.2-12.8 32L512 736v64l70.4 25.6c6.4 12.8 12.8 25.6 12.8 38.4l-38.4 70.4 44.8 44.8 70.4-38.4c6.4 6.4 19.2 12.8 38.4 12.8L736 1024h64l25.6-70.4c12.8-6.4 25.6-12.8 38.4-12.8l70.4 38.4 44.8-44.8-38.4-70.4c6.4-6.4 12.8-19.2 12.8-38.4L1024 800v-64l-70.4-25.6c-6.4-12.8-6.4-25.6-19.2-32zM768 870.4c-57.6 0-96-44.8-96-96 0-57.6 38.4-96 96-96s96 38.4 96 96c0 51.2-38.4 96-96 96z" p-id="25678"></path></svg>