<?xml version="1.0" standalone="no"?><!DOCTYPE svg PUBLIC "-//W3C//DTD SVG 1.1//EN" "http://www.w3.org/Graphics/SVG/1.1/DTD/svg11.dtd"><svg t="1766385577827" class="icon" viewBox="0 0 1024 1024" version="1.1" xmlns="http://www.w3.org/2000/svg" p-id="7361" width="64" height="64" xmlns:xlink="http://www.w3.org/1999/xlink"><path d="M256 742.4h682.6496q3.7888 0 7.5264-0.7168 3.6864-0.768 7.168-2.2016 3.5328-1.4336 6.656-3.584 3.1232-2.048 5.8368-4.7616 2.6624-2.6624 4.7616-5.7856 2.0992-3.1744 3.584-6.656 1.3824-3.4816 2.1504-7.168 0.7168-3.7376 0.7168-7.5264V149.3504q0-3.7888-0.7168-7.5264-0.768-3.6864-2.2016-7.168-1.4336-3.5328-3.5328-6.656-2.0992-3.1232-4.7616-5.8368-2.7136-2.6624-5.8368-4.7616-3.1232-2.0992-6.656-3.584-3.4816-1.4336-7.168-2.1504-3.7376-0.7168-7.5264-0.7168H85.3504q-3.7888 0-7.5264 0.7168-3.6864 0.7168-7.168 2.2016-3.5328 1.4336-6.656 3.584-3.1232 2.048-5.8368 4.7104-2.6624 2.7136-4.7616 5.8368-2.0992 3.1232-3.584 6.656-1.4336 3.4816-2.1504 7.168-0.7168 3.7376-0.7168 7.5264V704q0 3.7888 0.7168 7.4752 0.7168 3.7376 2.2016 7.2192 1.4336 3.4816 3.584 6.656 2.048 3.1232 4.7104 5.7856 2.7136 2.7136 5.8368 4.8128 3.1232 2.048 6.656 3.5328 3.4816 1.4336 7.168 2.2016 3.7376 0.7168 7.5264 0.7168H256zM900.2496 665.6H123.7504V187.7504h776.4992V665.6z" p-id="7362" fill="#2c2c2c"></path><path d="M302.9504 469.3504v85.2992q0 3.7888 0.7168 7.5264 0.7168 3.6864 2.2016 7.168 1.4336 3.5328 3.584 6.656 2.048 3.1232 4.7104 5.8368 2.7136 2.6624 5.8368 4.7616 3.1232 2.0992 6.656 3.584 3.4816 1.4336 7.168 2.1504 3.7376 0.7168 7.5264 0.7168t7.4752-0.7168q3.6864-0.7168 7.168-2.2016 3.5328-1.4336 6.656-3.584 3.1744-2.048 5.8368-4.7104 2.6624-2.7136 4.7616-5.8368 2.0992-3.1232 3.584-6.656 1.4336-3.4816 2.1504-7.168 0.768-3.7376 0.768-7.5264V469.3504q0-3.7888-0.768-7.5264-0.7168-3.6864-2.1504-7.168-1.4848-3.5328-3.584-6.656-2.048-3.1232-4.7616-5.8368-2.6624-2.6624-5.8368-4.7616-3.1232-2.0992-6.656-3.584-3.4816-1.4336-7.168-2.1504-3.6864-0.7168-7.4752-0.7168t-7.5264 0.7168q-3.6864 0.7168-7.168 2.2016-3.5328 1.4336-6.656 3.584-3.1232 2.048-5.8368 4.7104-2.6624 2.7136-4.7616 5.8368-2.0992 3.1232-3.584 6.656-1.4336 3.4816-2.1504 7.168-0.7168 3.7376-0.7168 7.5264zM473.6 704v128q0 3.7888 0.7168 7.4752 0.768 3.7376 2.2016 7.2192 1.4336 3.4816 3.584 6.656 2.048 3.1232 4.7616 5.7856 2.6624 2.7136 5.7856 4.8128 3.1744 2.048 6.656 3.5328 3.4816 1.4336 7.168 2.2016Q508.2624 870.4 512 870.4t7.4752-0.7168q3.7376-0.768 7.2192-2.2016 3.4816-1.4336 6.656-3.584 3.1232-2.048 5.7856-4.7616 2.7136-2.6624 4.8128-5.7856 2.048-3.1744 3.5328-6.656 1.4336-3.4816 2.2016-7.168 0.7168-3.7376 0.7168-7.5264v-128q0-3.7888-0.7168-7.4752-0.768-3.7376-2.2016-7.2192-1.4336-3.4816-3.584-6.656-2.048-3.1232-4.7616-5.7856-2.6624-2.7136-5.7856-4.8128-3.1744-2.048-6.656-3.5328-3.4816-1.4336-7.168-2.2016Q515.7376 665.6 512 665.6t-7.4752 0.7168q-3.7376 0.768-7.2192 2.2016-3.4816 1.4336-6.656 3.584-3.1232 2.048-5.7856 4.7616-2.7136 2.6624-4.8128 5.7856-2.048 3.1744-3.5328 6.656-1.4336 3.4816-2.2016 7.168-0.7168 3.7376-0.7168 7.5264zM473.6 384v170.6496q0 3.7888 0.7168 7.5264 0.768 3.6864 2.2016 7.168 1.4336 3.5328 3.584 6.656 2.048 3.1232 4.7616 5.8368 2.6624 2.6624 5.7856 4.7616 3.1744 2.0992 6.656 3.584 3.4816 1.4336 7.168 2.1504 3.7376 0.7168 7.5264 0.7168t7.4752-0.7168q3.7376-0.7168 7.2192-2.2016 3.4816-1.4336 6.656-3.584 3.1232-2.048 5.7856-4.7104 2.7136-2.7136 4.8128-5.8368 2.048-3.1232 3.5328-6.656 1.4336-3.4816 2.2016-7.168 0.7168-3.7376 0.7168-7.5264V384q0-3.7888-0.7168-7.4752-0.768-3.7376-2.2016-7.2192-1.4336-3.4816-3.584-6.656-2.048-3.1232-4.7616-5.7856-2.6624-2.7136-5.7856-4.8128-3.1744-2.048-6.656-3.5328-3.4816-1.4336-7.168-2.2016-3.7376-0.7168-7.5264-0.7168t-7.4752 0.7168q-3.7376 0.768-7.2192 2.2016-3.4816 1.4336-6.656 3.584-3.1232 2.048-5.7856 4.7616-2.7136 2.6624-4.8128 5.7856-2.048 3.1744-3.5328 6.656-1.4336 3.4816-2.2016 7.168-0.7168 3.7376-0.7168 7.5264zM644.2496 298.6496v256q0 3.7888 0.768 7.5264 0.7168 3.6864 2.1504 7.168 1.4848 3.5328 3.584 6.656 2.048 3.1232 4.7616 5.8368 2.6624 2.6624 5.8368 4.7616 3.1232 2.0992 6.656 3.584 3.4816 1.4336 7.168 2.1504 3.6864 0.7168 7.4752 0.7168t7.5264-0.7168q3.6864-0.7168 7.168-2.2016 3.5328-1.4336 6.656-3.584 3.1232-2.048 5.8368-4.7104 2.6624-2.7136 4.7616-5.8368 2.0992-3.1232 3.584-6.656 1.4336-3.4816 2.1504-7.168 0.7168-3.7376 0.7168-7.5264v-256q0-3.7888-0.7168-7.4752t-2.2016-7.168q-1.4336-3.5328-3.584-6.656-2.048-3.1744-4.7104-5.8368-2.7136-2.6624-5.8368-4.7616-3.1232-2.0992-6.656-3.584-3.4816-1.4336-7.168-2.1504-3.7376-0.768-7.5264-0.768t-7.4752 0.768q-3.6864 0.7168-7.168 2.1504-3.5328 1.4848-6.656 3.584-3.1744 2.048-5.8368 4.7616-2.6624 2.6624-4.7616 5.8368-2.0992 3.1232-3.584 6.656-1.4336 3.4816-2.1504 7.168-0.768 3.6864-0.768 7.4752z" p-id="7363" fill="#2c2c2c"></path><path d="M256 913.0496h512q3.7888 0 7.4752-0.7168 3.7376-0.7168 7.2192-2.2016 3.4816-1.4336 6.656-3.584 3.1232-2.048 5.7856-4.7104 2.7136-2.7136 4.8128-5.8368 2.048-3.1232 3.5328-6.656 1.4336-3.4816 2.2016-7.168 0.7168-3.7376 0.7168-7.5264t-0.7168-7.4752q-0.768-3.6864-2.2016-7.168-1.4336-3.5328-3.584-6.656-2.048-3.1744-4.7616-5.8368-2.6624-2.6624-5.7856-4.7616-3.1744-2.0992-6.656-3.584-3.4816-1.4336-7.168-2.1504-3.7376-0.768-7.5264-0.768H256q-3.7888 0-7.4752 0.768-3.7376 0.7168-7.2192 2.1504-3.4816 1.4848-6.656 3.584-3.1232 2.048-5.7856 4.7616-2.7136 2.6624-4.8128 5.8368-2.048 3.1232-3.5328 6.656-1.4336 3.4816-2.2016 7.168-0.7168 3.6864-0.7168 7.4752t0.7168 7.5264q0.768 3.6864 2.2016 7.168 1.4336 3.5328 3.584 6.656 2.048 3.1232 4.7616 5.8368 2.6624 2.6624 5.7856 4.7616 3.1744 2.0992 6.656 3.584 3.4816 1.4336 7.168 2.1504 3.7376 0.7168 7.5264 0.7168z" p-id="7364" fill="#2c2c2c"></path></svg>